<svg id="_002-certificate" data-name="002-certificate" xmlns="http://www.w3.org/2000/svg" width="87.999" height="49.891" viewBox="0 0 87.999 49.891">
  <path id="Path_175" data-name="Path 175" d="M445.174,116.513c-1.6-3.307-3.884-5.23-6.476-5.482a2.571,2.571,0,0,1-.568.069c-.268.079-1.415,1.008-2.5,4.318a40.148,40.148,0,0,0-1.646,12.01c0,.863.022,1.717.064,2.558h11.076a2.577,2.577,0,0,0,2.268-2.558,25.647,25.647,0,0,0-2.221-10.915Z" transform="translate(-359.396 -111.002)" fill="#fff" opacity="0.5"/>
  <path id="Path_176" data-name="Path 176" d="M438.6,255.61c1.082,3.31,2.229,4.239,2.5,4.318a2.573,2.573,0,0,1,.554.065,4.742,4.742,0,0,0,3.179-1.762c.462-.57,1.738-2.148,1.742-6.918h-9A30.15,30.15,0,0,0,438.6,255.61Z" transform="translate(-362.367 -227.174)" fill="#fff" opacity="0.5"/>
  <ellipse id="Ellipse_23" data-name="Ellipse 23" cx="10.709" cy="10.709" rx="10.709" ry="10.709" transform="translate(29.015 5.745)" fill="#fff"/>
  <path id="Path_177" data-name="Path 177" d="M177.482,281.671v17.955a2.578,2.578,0,0,0,4.193,2.01L186.7,297.6l5.026,4.039a2.578,2.578,0,0,0,4.193-2.01V281.671a15.833,15.833,0,0,1-18.438,0Z" transform="translate(-146.978 -252.313)" fill="#fff"/>
  <path id="Path_178" data-name="Path 178" d="M304.13,114.561l-24.022,2.378a15.851,15.851,0,0,1,5.955,20.147v7.267l18.064,1.788q-.318-.721-.616-1.56a44.139,44.139,0,0,1-2.112-14.23,44.139,44.139,0,0,1,2.112-14.23C303.692,115.61,303.9,115.085,304.13,114.561Z" transform="translate(-231.965 -113.925)" fill="#fff" opacity="0.5"/>
  <path id="Path_179" data-name="Path 179" d="M32.575,113.154l-23.039-2.28q-.127-.012-.254-.013c-1.641,0-4.74.716-7.061,5.511a27.929,27.929,0,0,0,0,21.831c2.321,4.795,5.42,5.511,7.061,5.511q.127,0,.254-.013l15.812-1.565v-8.114a15.856,15.856,0,0,1,7.227-20.868Z" transform="translate(0 -110.861)" fill="#fff" opacity="0.5"/>
</svg>
