<svg id="_001-laptop" data-name="001-laptop" xmlns="http://www.w3.org/2000/svg" width="81.258" height="61.981" viewBox="0 0 81.258 61.981">
  <path id="Path_171" data-name="Path 171" d="M70.942,375.55H10.317A10.328,10.328,0,0,1,0,365.238v-1.59a2.381,2.381,0,0,1,2.381-2.382H33.025a2.381,2.381,0,0,1,2.381,2.381v.794H47.069v-.794a2.381,2.381,0,0,1,2.381-2.381H78.877a2.381,2.381,0,0,1,2.381,2.381v1.587A10.328,10.328,0,0,1,70.942,375.55Z" transform="translate(0 -313.569)" fill="#fff"/>
  <path id="Path_172" data-name="Path 172" d="M214.1,203.9a2.38,2.38,0,0,1-.779-.131l-7.125-2.466v7.3l7.942,1.588,7.942-1.588v-7.33l-7.2,2.493A2.388,2.388,0,0,1,214.1,203.9Z" transform="translate(-173.474 -178.974)" fill="#fff"/>
  <path id="Path_173" data-name="Path 173" d="M181.861,139.688l11.766,4.073,11.766-4.073-11.766-4.072Z" transform="translate(-152.998 -123.731)" fill="#fff"/>
  <path id="Path_174" data-name="Path 174" d="M99.352,60.732H32.382A2.381,2.381,0,0,0,30,63.113v40.555H58.264a7.14,7.14,0,0,1,5.936,3.174h4.554a7.14,7.14,0,0,1,5.936-3.174h27.043V63.113a2.381,2.381,0,0,0-2.381-2.381ZM85.692,78.939,78.61,81.39V92.319A2.381,2.381,0,0,1,76.7,94.653L66.374,96.718a2.384,2.384,0,0,1-.934,0L55.117,94.653A2.381,2.381,0,0,1,53.2,92.319v-10.9l-7.158-2.478a2.381,2.381,0,0,1,0-4.5L65.09,67.848a2.381,2.381,0,0,1,1.557,0l19.045,6.592a2.381,2.381,0,0,1,0,4.5Z" transform="translate(-25.24 -60.732)" fill="#fff" opacity="0.5"/>
</svg>
