<svg id="_003-medal" data-name="003-medal" xmlns="http://www.w3.org/2000/svg" width="68.749" height="87.999" viewBox="0 0 68.749 87.999">
  <path id="Path_180" data-name="Path 180" d="M235.022,173.341l-1.188-1.733-1.188,1.733a2.577,2.577,0,0,1-1.4,1.015l-2.015.594,1.281,1.665a2.578,2.578,0,0,1,.534,1.643l-.058,2.1,1.979-.7a2.577,2.577,0,0,1,1.727,0l1.979.7-.058-2.1a2.579,2.579,0,0,1,.534-1.643l1.281-1.665-2.015-.594a2.578,2.578,0,0,1-1.4-1.015Z" transform="translate(-199.46 -142.113)" fill="#fff"/>
  <path id="Path_181" data-name="Path 181" d="M169.047,94.864a18,18,0,1,0,18.047,18A18.046,18.046,0,0,0,169.047,94.864Zm10.981,16.7-3.016,3.92.136,4.944a2.578,2.578,0,0,1-3.441,2.5l-4.66-1.657-4.66,1.657a2.578,2.578,0,0,1-3.441-2.5l.136-4.944-3.016-3.92a2.578,2.578,0,0,1,1.314-4.045l4.744-1.4,2.8-4.079a2.578,2.578,0,0,1,4.253,0l2.8,4.079,4.744,1.4a2.578,2.578,0,0,1,1.314,4.045Z" transform="translate(-134.672 -78.559)" fill="#fff"/>
  <path id="Path_182" data-name="Path 182" d="M94.231,357.391l-.406.076a22.145,22.145,0,0,1-4.188.491,11.288,11.288,0,0,1-5.724-1.469c-3.748-2.164-5.053-5.907-5.832-8.144L77.959,348l-.354-.123-.29-.1-5.158,19.209a2.578,2.578,0,0,0,3.478,3.05l11.187-4.64,7.362,9.6a2.578,2.578,0,0,0,4.536-.9l3.34-12.44c-3.509-.533-6.007-2.687-7.58-4.045Z" transform="translate(-69.307 -288)" fill="#fff"/>
  <path id="Path_183" data-name="Path 183" d="M290.184,347.775l-.289.1-.355.124-.122.347c-.78,2.237-2.084,5.98-5.832,8.144a11.285,11.285,0,0,1-5.723,1.469h0a22.124,22.124,0,0,1-4.18-.49l-.415-.078-.248.214c-1.574,1.358-4.071,3.513-7.581,4.046l3.34,12.44a2.578,2.578,0,0,0,4.535.9l7.362-9.6,11.187,4.64a2.578,2.578,0,0,0,3.478-3.05Z" transform="translate(-229.443 -288.002)" fill="#fff"/>
  <path id="Path_184" data-name="Path 184" d="M98.382,64.141a8.429,8.429,0,0,1,2.811.26c2.021.381,4.311.813,6.372-.377,2.088-1.206,2.894-3.518,3.541-5.375a8.311,8.311,0,0,1,1.142-2.5A8.351,8.351,0,0,1,114.761,55c1.861-.646,4.176-1.45,5.385-3.534,1.2-2.061.743-4.449.379-6.368a8.385,8.385,0,0,1-.26-2.8,8.4,8.4,0,0,1,1.561-2.166c1.3-1.5,2.923-3.373,2.923-5.829s-1.621-4.326-2.923-5.829a8.4,8.4,0,0,1-1.561-2.166,8.385,8.385,0,0,1,.26-2.8c.364-1.919.816-4.307-.379-6.368-1.208-2.084-3.524-2.887-5.384-3.533a8.349,8.349,0,0,1-2.513-1.141,8.322,8.322,0,0,1-1.142-2.5c-.647-1.858-1.453-4.17-3.541-5.375-2.061-1.19-4.351-.758-6.372-.377a8.443,8.443,0,0,1-2.811.26,8.248,8.248,0,0,1-2.174-1.56C94.7,1.616,92.831,0,90.375,0s-4.329,1.616-5.834,2.915a8.252,8.252,0,0,1-2.174,1.56,8.438,8.438,0,0,1-2.811-.26c-2.021-.381-4.311-.813-6.372.377C71.1,5.8,70.29,8.11,69.643,9.968a8.311,8.311,0,0,1-1.142,2.5,8.356,8.356,0,0,1-2.512,1.141c-1.861.646-4.176,1.45-5.385,3.534-1.2,2.061-.743,4.449-.379,6.368a8.385,8.385,0,0,1,.26,2.8,8.4,8.4,0,0,1-1.561,2.166c-1.3,1.5-2.923,3.373-2.923,5.829s1.621,4.326,2.923,5.829A8.407,8.407,0,0,1,60.485,42.3a8.386,8.386,0,0,1-.26,2.8c-.364,1.919-.816,4.307.379,6.368,1.208,2.084,3.524,2.887,5.384,3.533A8.349,8.349,0,0,1,68.5,56.144a8.321,8.321,0,0,1,1.142,2.5c.647,1.858,1.453,4.17,3.541,5.375,2.061,1.19,4.352.758,6.372.377a8.419,8.419,0,0,1,2.811-.259,8.247,8.247,0,0,1,2.174,1.56c1.5,1.3,3.377,2.915,5.834,2.915S94.7,67,96.208,65.7a8.256,8.256,0,0,1,2.174-1.56ZM67.172,34.308a23.2,23.2,0,1,1,23.2,23.16A23.207,23.207,0,0,1,67.172,34.308Z" transform="translate(-56 0)" fill="#fff" opacity="0.5"/>
</svg>
